# xmcd
#
# Track frame offsets: 
#        150
#        15424
#        42328
#        60498
#        87170
#        110521
#        124285
#        133507
#        175325
#        191675
#
# Disc length: 2930 seconds
#
# Revision: 0
# Processed by: cddbd v1.5.2PL0 Copyright (c) Steve Scherf et al.
# Submitted via: ExactAudioCopy v0.99pb5
#
DISCID=820b700a
DTITLE=The Lumberjack Cowboy Heartbreak Trucking Co. - Songs From
DYEAR=2009
DGENRE=Country
TTITLE0=You Turn Me On
TTITLE1=John Doe
TTITLE2=Bring It On Back
TTITLE3=The Ring
TTITLE4=Pop Music
TTITLE5=The Wrestler
TTITLE6=When I'm 64
TTITLE7=Why Do You Force Me
TTITLE8=Crawled Out Of The Sea
TTITLE9=New York
EXTD=
EXTT0=
EXTT1=
EXTT2=
EXTT3=
EXTT4=
EXTT5=
EXTT6=
EXTT7=
EXTT8=
EXTT9=
PLAYORDER=
